<mxfile host="app.diagrams.net" agent="Mozilla/5.0 (Windows NT 10.0; Win64; x64) AppleWebKit/537.36 (KHTML, like Gecko) Chrome/136.0.0.0 Safari/537.36" version="27.0.9">
  <diagram name="Seite-1" id="_MsoE-6C5AxzFxB0PAsi">
    <mxGraphModel dx="1129" dy="823" grid="0" gridSize="10" guides="1" tooltips="1" connect="1" arrows="1" fold="1" page="0" pageScale="1" pageWidth="827" pageHeight="1169" math="0" shadow="0">
      <root>
        <mxCell id="0" />
        <mxCell id="1" parent="0" />
        <mxCell id="nR6lSDJ4ttn1K4LJ955I-32" value="&lt;div&gt;Album:&amp;nbsp;&lt;br&gt;-&amp;nbsp; Titel: String&amp;nbsp;&lt;/div&gt;&lt;div&gt;- Erscheinungsjahr: int&lt;/div&gt;&lt;div&gt;- Bandname: String&lt;/div&gt;&lt;div&gt;&lt;br&gt;&lt;/div&gt;&lt;div&gt;&lt;br&gt;&lt;/div&gt;&lt;div&gt;&lt;br&gt;&lt;/div&gt;&lt;div&gt;&lt;br&gt;&lt;/div&gt;&lt;div&gt;&lt;br&gt;&lt;/div&gt;&lt;div&gt;&lt;br&gt;&lt;/div&gt;&lt;div&gt;&lt;br&gt;&lt;/div&gt;&lt;div&gt;&lt;br&gt;&lt;/div&gt;&lt;div&gt;&lt;br&gt;&lt;/div&gt;&lt;div&gt;&lt;br&gt;&lt;/div&gt;&lt;div&gt;&lt;br&gt;&lt;/div&gt;" style="rounded=0;whiteSpace=wrap;html=1;" vertex="1" parent="1">
          <mxGeometry x="1162" y="609" width="280" height="246" as="geometry" />
        </mxCell>
        <mxCell id="nR6lSDJ4ttn1K4LJ955I-29" value="Band:&amp;nbsp;&lt;div&gt;&lt;br&gt;&lt;/div&gt;&lt;div&gt;- Name: String&amp;nbsp;&lt;/div&gt;&lt;div&gt;- GrÃ¼ndungsjahr: int&amp;nbsp;&lt;/div&gt;&lt;div&gt;&lt;br&gt;&lt;/div&gt;&lt;div&gt;&lt;br&gt;&lt;/div&gt;&lt;div&gt;&lt;br&gt;&lt;/div&gt;&lt;div&gt;&lt;br&gt;&lt;/div&gt;&lt;div&gt;&lt;br&gt;&lt;/div&gt;&lt;div&gt;&lt;br&gt;&lt;/div&gt;&lt;div&gt;&lt;br&gt;&lt;/div&gt;&lt;div&gt;&lt;br&gt;&lt;/div&gt;&lt;div&gt;&lt;br&gt;&lt;/div&gt;" style="rounded=0;whiteSpace=wrap;html=1;" vertex="1" parent="1">
          <mxGeometry x="754" y="387" width="221" height="229" as="geometry" />
        </mxCell>
        <mxCell id="nR6lSDJ4ttn1K4LJ955I-31" value="Genre: Array&lt;div&gt;- Name: String&amp;nbsp;&lt;/div&gt;" style="rounded=0;whiteSpace=wrap;html=1;" vertex="1" parent="1">
          <mxGeometry x="1246" y="688" width="120" height="60" as="geometry" />
        </mxCell>
        <mxCell id="nR6lSDJ4ttn1K4LJ955I-33" style="edgeStyle=none;curved=1;rounded=0;orthogonalLoop=1;jettySize=auto;html=1;exitX=1;exitY=0.75;exitDx=0;exitDy=0;fontSize=12;startSize=8;endSize=8;" edge="1" parent="1" source="nR6lSDJ4ttn1K4LJ955I-31" target="nR6lSDJ4ttn1K4LJ955I-31">
          <mxGeometry relative="1" as="geometry" />
        </mxCell>
        <mxCell id="nR6lSDJ4ttn1K4LJ955I-187" value="Mitglied&lt;div&gt;- Name: String&amp;nbsp;&lt;/div&gt;&lt;div&gt;- Instrument: String&amp;nbsp;&lt;/div&gt;&lt;div&gt;- Eintrittsjahr: int&amp;nbsp;&lt;/div&gt;" style="rounded=0;whiteSpace=wrap;html=1;" vertex="1" parent="1">
          <mxGeometry x="798" y="483" width="155" height="103" as="geometry" />
        </mxCell>
        <mxCell id="nR6lSDJ4ttn1K4LJ955I-189" value="" style="endArrow=none;dashed=1;html=1;dashPattern=1 3;strokeWidth=2;rounded=0;fontSize=12;startSize=8;endSize=8;curved=1;entryX=1.005;entryY=0.41;entryDx=0;entryDy=0;entryPerimeter=0;exitX=0;exitY=0.25;exitDx=0;exitDy=0;" edge="1" parent="1" source="nR6lSDJ4ttn1K4LJ955I-32" target="nR6lSDJ4ttn1K4LJ955I-29">
          <mxGeometry width="50" height="50" relative="1" as="geometry">
            <mxPoint x="1031" y="699" as="sourcePoint" />
            <mxPoint x="1081" y="649" as="targetPoint" />
          </mxGeometry>
        </mxCell>
        <mxCell id="nR6lSDJ4ttn1K4LJ955I-190" value="Songs: Array&amp;nbsp;&lt;div&gt;- Name: String&amp;nbsp;&lt;/div&gt;&lt;div&gt;- Dauer: Int&amp;nbsp;&lt;/div&gt;&lt;div&gt;- Erscheinungsdatum: Int&lt;/div&gt;" style="rounded=0;whiteSpace=wrap;html=1;" vertex="1" parent="1">
          <mxGeometry x="1246" y="766" width="156" height="82" as="geometry" />
        </mxCell>
      </root>
    </mxGraphModel>
  </diagram>
</mxfile>
